<svg width="252" height="212" xmlns="http://www.w3.org/2000/svg">
    <style type="text/css">
        .st0{opacity:0.15;fill:#292F33;}
	    .st1{fill:#FFFFFF;}
    </style>

 <g>
  <title>background</title>
  <rect fill="none" id="canvas_background" height="214" width="254" y="-1" x="-1"/>
 </g>
 <g>
  <title>Layer 1</title>
  <g id="Logo__x2014__FIXED">
   <g id="svg_5">
    <path id="svg_4" d="m79.6,207.6c94.3,0 145.9,-78.2 145.9,-145.9c0,-2.2 0,-4.4 -0.1,-6.6c10,-7.2 18.7,-16.3 25.6,-26.6c-9.2,4.1 -19.1,6.8 -29.5,8.1c10.6,-6.3 18.7,-16.4 22.6,-28.4c-9.9,5.9 -20.9,10.1 -32.6,12.4c-9.4,-10 -22.7,-16.2 -37.4,-16.2c-28.3,0 -51.3,23 -51.3,51.3c0,4 0.5,7.9 1.3,11.7c-42.6,-2.1 -80.4,-22.6 -105.7,-53.6c-4.4,7.6 -6.9,16.4 -6.9,25.8c0,17.8 9.1,33.5 22.8,42.7c-8.4,-0.3 -16.3,-2.6 -23.2,-6.4c0,0.2 0,0.4 0,0.7c0,24.8 17.7,45.6 41.1,50.3c-4.3,1.2 -8.8,1.8 -13.5,1.8c-3.3,0 -6.5,-0.3 -9.6,-0.9c6.5,20.4 25.5,35.2 47.9,35.6c-17.6,13.8 -39.7,22 -63.7,22c-4.1,0 -8.2,-0.2 -12.2,-0.7c22.6,14.4 49.6,22.9 78.5,22.9" class="st1"/>
   </g>
  </g>
 </g>
</svg>